<?xml version="1.0" encoding="UTF-8"?>
<svg enable-background="new 0 0 48 32" version="1.1" viewBox="0 0 48 32" xml:space="preserve" xmlns="http://www.w3.org/2000/svg">
<style type="text/css">
	.st0{fill:#F2F0EB;}
	.st1{opacity:0;}
	.st2{fill:#FFFFFF;}
	.st3{fill:#F16223;}
	.st4{fill:#E82128;}
	.st5{fill:#F49D20;}
	.st6{fill:#2A6DB5;}
	.st7{fill:#DEE2E7;}
	.st8{fill:#2A2C6B;}
	.st9{fill:#ED7624;}
	.st10{fill:#221F1F;}
	.st11{fill:#253E80;}
	.st12{fill:#1A9AD6;}
	.st13{fill:#242F65;}
</style>
<g transform="translate(544 316)">
	<path class="st7" d="m-496-312v24c0 2.21-1.79 4-4 4h-40c-0.46 0-0.93-0.08-1.36-0.24-1.58-0.57-2.64-2.08-2.64-3.76v-24c0-2.21 1.79-4 4-4h40c2.21 0 4 1.79 4 4z"/>
	<g transform="translate(2 10)">
		<path class="st9" d="m-498-310v11.96c0 2.23-1.82 4.04-4.06 4.04h-40.56c-0.47 0-0.94-0.08-1.38-0.24 3.41-0.48 6.69-1.09 9.92-1.78 0.85-0.16 1.68-0.36 2.52-0.54 13.41-3.05 25.01-7.53 31.54-11.92 0.72-0.51 1.41-1.02 2.02-1.52z"/>
		<path class="st10" d="m-540.18-315.36h-1.82v6.36h1.82c0.83 0.05 1.65-0.21 2.3-0.72 1.07-0.9 1.44-2.38 0.92-3.68-0.52-1.29-1.82-2.1-3.22-2v0.04zm1.48 4.8c-0.47 0.41-1.09 0.61-1.72 0.56h-0.32v-4.28h0.32c0.62-0.06 1.24 0.12 1.72 0.52 0.45 0.41 0.71 0.99 0.7 1.6 0 0.61-0.25 1.19-0.7 1.6z"/>
		<rect class="st10" x="-536.15" y="-315.37" width="1.25" height="6.42"/>
		<path class="st10" d="m-531.83-312.91c-0.75-0.27-1-0.46-1-0.81s0.39-0.71 0.93-0.71c0.39 0.02 0.76 0.21 1 0.52l0.65-0.85c-0.51-0.47-1.18-0.73-1.88-0.72-0.51-0.03-1.02 0.15-1.39 0.49-0.38 0.35-0.6 0.83-0.61 1.35 0 0.89 0.4 1.34 1.57 1.76 0.3 0.1 0.59 0.22 0.87 0.37 0.24 0.14 0.38 0.39 0.38 0.66 0 0.26-0.11 0.5-0.3 0.67s-0.44 0.26-0.7 0.24c-0.58 0.01-1.12-0.33-1.36-0.86l-0.81 0.78c0.47 0.8 1.35 1.27 2.28 1.22 0.58 0.04 1.14-0.17 1.56-0.57s0.65-0.96 0.64-1.53c0-1.02-0.41-1.49-1.83-2.01z"/>
		<path class="st10" d="m-529.59-312.16c-0.01 0.9 0.35 1.76 0.99 2.39s1.51 0.98 2.4 0.96c0.55 0 1.08-0.12 1.57-0.37v-1.47c-0.38 0.44-0.93 0.7-1.51 0.7-0.59 0.01-1.16-0.22-1.57-0.64s-0.63-0.99-0.59-1.58c-0.02-0.57 0.19-1.13 0.59-1.54s0.94-0.65 1.51-0.66c0.6 0 1.17 0.26 1.57 0.72v-1.47c-0.47-0.26-1-0.4-1.54-0.4-0.9-0.01-1.77 0.34-2.41 0.97s-1 1.49-1.01 2.39z"/>
		<polygon class="st10" points="-514.7 -311.06 -516.42 -315.37 -517.78 -315.37 -515.06 -308.79 -514.39 -308.79 -511.61 -315.37 -512.97 -315.37"/>
		<polygon class="st10" points="-511.05 -308.95 -507.49 -308.95 -507.49 -310.04 -509.8 -310.04 -509.8 -311.77 -507.58 -311.77 -507.58 -312.86 -509.8 -312.86 -509.8 -314.28 -507.49 -314.28 -507.49 -315.37 -511.05 -315.37"/>
		<path class="st10" d="m-504-311.64c0.89-0.14 1.53-0.94 1.46-1.84 0-1.2-0.82-1.88-2.28-1.88h-1.84v6.36h1.26v-2.54h0.14l1.74 2.54h1.52l-2-2.64zm-1-0.78h-0.4v-1.94h0.4c0.76 0 1.18 0.32 1.18 1s-0.44 0.94-1.18 0.94z"/>
		<path class="st9" d="m-517.41-312.16c0 1.88-1.53 3.41-3.41 3.41s-3.41-1.53-3.41-3.41 1.53-3.41 3.41-3.41c1.88 0.01 3.4 1.53 3.41 3.41z"/>
		<path class="st10" d="m-502-315.1c0.07-0.01 0.12-0.07 0.12-0.14 0-0.12-0.08-0.18-0.22-0.18h-0.2v0.58h0.14v-0.24l0.18 0.24h0.16l-0.18-0.26zm-0.12-0.08v-0.12c0.06 0 0.1 0 0.1 0.06s0.02 0.06-0.08 0.06h-0.02z"/>
		<path class="st10" d="m-502.06-315.64c-0.27 0.01-0.48 0.23-0.48 0.5 0 0.28 0.22 0.5 0.5 0.5s0.5-0.22 0.5-0.5c0-0.14-0.06-0.27-0.15-0.36s-0.23-0.15-0.37-0.14zm0.26 0.8c-0.06 0.08-0.16 0.12-0.26 0.12-0.11 0-0.21-0.05-0.28-0.13s-0.11-0.18-0.1-0.29c0-0.21 0.17-0.38 0.38-0.38s0.38 0.17 0.38 0.38c0 0.11-0.05 0.22-0.12 0.3z"/>
	</g>
</g>
</svg>
