<?xml version="1.0" encoding="UTF-8"?>
<svg enable-background="new 0 0 48 32" version="1.1" viewBox="0 0 48 32" xml:space="preserve" xmlns="http://www.w3.org/2000/svg">
<style type="text/css">
	.st0{fill:#F2F0EB;}
	.st1{opacity:0;}
	.st2{fill:#FFFFFF;}
	.st3{fill:#F16223;}
	.st4{fill:#E82128;}
	.st5{fill:#F49D20;}
	.st6{fill:#2A6DB5;}
	.st7{fill:#DEE2E7;}
	.st8{fill:#2A2C6B;}
	.st9{fill:#ED7624;}
	.st10{fill:#221F1F;}
	.st11{fill:#253E80;}
	.st12{fill:#1A9AD6;}
	.st13{fill:#242F65;}
</style>
<g transform="translate(96 316)">
	<path class="st7" d="m-92-316h40c2.21 0 4 1.79 4 4v24c0 2.21-1.79 4-4 4h-40c-2.21 0-4-1.79-4-4v-24c0-2.21 1.79-4 4-4z"/>
	<path class="st8" d="m-72.14-304.61-2 9.25h-2.4l2-9.25h2.4zm10.06 6 1.26-3.47 0.73 3.47h-1.99zm2.67 3.28h2.22l-1.94-9.25h-2c-0.44 0-0.83 0.27-1 0.68l-3.59 8.57h2.52l0.49-1.38h3.01l0.29 1.38zm-6.24-3c0.01-2.49-3.35-2.67-3.35-3.67 0-0.33 0.32-0.68 1-0.77 0.81-0.08 1.63 0.06 2.36 0.41l0.42-2c-0.72-0.27-1.47-0.41-2.24-0.41-2.36 0-4 1.26-4 3.06 0 1.33 1.19 2.07 2.09 2.51s1.25 0.75 1.24 1.15c0 0.62-0.74 0.9-1.43 0.91-0.85 0.01-1.69-0.2-2.44-0.6l-0.43 2c0.85 0.33 1.75 0.5 2.66 0.49 2.51 0 4.16-1.24 4.17-3.16m-9.91-6.23-3.88 9.25h-2.61l-1.91-7.39c-0.03-0.35-0.25-0.66-0.57-0.81-0.75-0.36-1.54-0.62-2.36-0.78l0.06-0.27h4.07c0.55 0 1.02 0.4 1.11 0.94l1 5.35 2.49-6.29h2.6z"/>
</g>
</svg>
