<?xml version="1.0" encoding="UTF-8"?>
<svg enable-background="new 0 0 48 32" version="1.1" viewBox="0 0 48 32" xml:space="preserve" xmlns="http://www.w3.org/2000/svg">
<style type="text/css">
	.st0{fill:#F2F0EB;}
	.st1{opacity:0;}
	.st2{fill:#FFFFFF;}
	.st3{fill:#F16223;}
	.st4{fill:#E82128;}
	.st5{fill:#F49D20;}
	.st6{fill:#2A6DB5;}
	.st7{fill:#DEE2E7;}
	.st8{fill:#2A2C6B;}
	.st9{fill:#ED7624;}
	.st10{fill:#221F1F;}
	.st11{fill:#253E80;}
	.st12{fill:#1A9AD6;}
	.st13{fill:#242F65;}
</style>
<g transform="translate(992 316)">
	<path class="st7" d="m-988-316h40c2.21 0 4 1.79 4 4v24c0 2.21-1.79 4-4 4h-40c-2.21 0-4-1.79-4-4v-24c0-2.21 1.79-4 4-4z"/>
	<g transform="translate(15 6)">
		<path class="st11" d="m-986.66-296.68 0.35-2.2h-4.46l2.56-16.26c0.01-0.05 0.03-0.1 0.07-0.13s0.09-0.05 0.14-0.05h6.21c2.07 0 3.49 0.43 4.24 1.28 0.33 0.36 0.56 0.79 0.67 1.27 0.12 0.58 0.12 1.17 0 1.75v0.5l0.35 0.2c0.27 0.13 0.51 0.31 0.71 0.53 0.31 0.37 0.5 0.82 0.57 1.29 0.07 0.62 0.05 1.25-0.08 1.86-0.13 0.74-0.39 1.46-0.77 2.11-0.31 0.52-0.72 0.98-1.21 1.33-0.5 0.34-1.05 0.59-1.63 0.73-0.65 0.16-1.33 0.25-2 0.24h-0.49c-0.34 0-0.68 0.12-0.94 0.34-0.27 0.22-0.44 0.54-0.49 0.88v0.2l-0.61 3.88v0.15c0.01 0.03 0.01 0.05 0 0.08h-0.06l-3.13 0.02z"/>
		<path class="st12" d="m-976.2-310.92-0.06 0.37c-0.82 4.2-3.63 5.66-7.21 5.66h-1.82c-0.44 0-0.81 0.32-0.88 0.75l-0.93 5.92-0.27 1.68c-0.02 0.13 0.02 0.27 0.11 0.37s0.22 0.16 0.35 0.17h3.24c0.38 0 0.71-0.28 0.77-0.66v-0.16l0.61-3.87v-0.21c0.05-0.38 0.38-0.66 0.76-0.66h0.53c3.13 0 5.59-1.27 6.3-5 0.38-1.27 0.15-2.66-0.64-3.73-0.25-0.26-0.54-0.47-0.86-0.63z"/>
		<path class="st13" d="m-977.06-311.26-0.38-0.1-0.42-0.08c-0.53-0.08-1.06-0.12-1.6-0.11h-4.88c-0.11 0-0.23 0.02-0.33 0.07-0.23 0.11-0.39 0.33-0.43 0.58l-1 6.57v0.19c0.07-0.43 0.44-0.75 0.88-0.75h1.82c3.58 0 6.39-1.46 7.21-5.66l0.06-0.37c-0.22-0.11-0.44-0.2-0.67-0.28l-0.26-0.06z"/>
		<path class="st11" d="m-985.1-310.9c0.04-0.25 0.2-0.47 0.43-0.58 0.1-0.05 0.22-0.07 0.33-0.07h4.88c0.54-0.01 1.07 0.03 1.6 0.11l0.42 0.08 0.38 0.1 0.19 0.06c0.23 0.08 0.45 0.17 0.67 0.28 0.33-1.25 0.03-2.58-0.8-3.57-1-1.06-2.64-1.51-4.78-1.51h-6.22c-0.44 0-0.81 0.32-0.88 0.75l-2.59 16.41c-0.02 0.15 0.02 0.31 0.12 0.43s0.25 0.19 0.41 0.19h3.84l1-6.11 1-6.57z"/>
	</g>
</g>
</svg>
