<?xml version="1.0" encoding="UTF-8"?>
<svg enable-background="new 0 0 48 32" version="1.1" viewBox="0 0 48 32" xml:space="preserve" xmlns="http://www.w3.org/2000/svg">
<style type="text/css">
	.st0{fill:#F2F0EB;}
	.st1{opacity:0;}
	.st2{fill:#FFFFFF;}
	.st3{fill:#F16223;}
	.st4{fill:#E82128;}
	.st5{fill:#F49D20;}
	.st6{fill:#2A6DB5;}
	.st7{fill:#DEE2E7;}
	.st8{fill:#2A2C6B;}
	.st9{fill:#ED7624;}
	.st10{fill:#221F1F;}
	.st11{fill:#253E80;}
	.st12{fill:#1A9AD6;}
	.st13{fill:#242F65;}
</style>
<g transform="translate(321 192)">
	<path class="st2" d="m-317-192h40c2.21 0 4 1.79 4 4v24c0 2.21-1.79 4-4 4h-40c-2.21 0-4-1.79-4-4v-24c0-2.21 1.79-4 4-4z"/>
	
		<path class="st6" d="m-312.12-174.1v8.16h8.26l0.86-1.22 0.84 1.22h5.05v-1.84h0.56c0.51 0 1.01-0.07 1.5-0.22v2.06h3.43v-1.46l1.16 1.46h15.62c0.64 0.01 1.27-0.16 1.82-0.5v3.44c-0.46 1.77-2.06 3.01-3.89 3h-40.09c-2.21 0-4-1.79-4-4v-12.6h2.28l0.47-1.22h1.12l0.46 1.22h18.34v-1.46l1.16 1.46h4.81v-0.74c0.71 0.5 1.55 0.76 2.42 0.74h2.87l0.46-1.22h1.12l0.49 1.22h4.9v-1.58l1 1.58h3.38v-8.16h-3.59v1.66l-1.07-1.66h-3.14v2.1l-1-2.1h-5.34c-0.9-0.03-1.79 0.26-2.5 0.82v-0.82h-17.64l-0.6 1.76-0.6-1.8h-4v2.1l-0.94-2.1h-3.26l-1.6 3.8v-7c0-2.21 1.79-4 4-4h40.09c1.84-0.02 3.45 1.22 3.91 3v14.9h-29.14l-0.86 1.2-0.84-1.2h-8.28z"/>
		<path class="st6" d="m-306.29-171.64v-1.2h-4.53v5.64h4.53v-1.2h-3.17v-1h3.11v-1.22h-3.11v-1l3.17-0.02zm4.09 1.64 2.26-2.8h-1.66l-1.4 1.74-1.39-1.78h-1.7l2.29 2.84-2.2 2.8h1.64l1.36-1.8 1.36 1.82h1.72l-2.28-2.82zm5.63-2.8h-3.11v5.6h1.37v-1.86h1.7c0.52 0.04 1.04-0.14 1.42-0.51 0.38-0.36 0.59-0.87 0.58-1.39 0.02-0.52-0.18-1.02-0.56-1.38s-0.89-0.54-1.4-0.5v0.04zm-0.12 2.58h-1.62v-1.42h1.62c0.38 0 0.69 0.31 0.69 0.69s-0.31 0.69-0.69 0.69v0.04zm6.29 1c0.98-0.12 1.69-1.01 1.57-1.99s-1.01-1.69-1.99-1.57h-3.06v5.58h1.36v-2h0.62l1.68 2h1.71l-1.89-2.02zm-0.54-1.12h-1.58v-1.3h1.58c0.18-0.02 0.36 0.03 0.49 0.15s0.21 0.29 0.21 0.47-0.07 0.35-0.21 0.47-0.32 0.17-0.49 0.15v0.06zm7.3-1.24v-1.2h-4.55v5.58h4.55v-1.2h-3.17v-1h3.09v-1.22h-3.09v-1l3.17 0.04zm3.77 1h-1.31c-0.2 0.04-0.41-0.04-0.52-0.22-0.11-0.17-0.11-0.4 0-0.57s0.32-0.26 0.52-0.22h2.43l0.54-1.2h-2.93c-0.5-0.06-1 0.1-1.37 0.44s-0.58 0.82-0.57 1.32c-0.03 0.47 0.15 0.92 0.49 1.24s0.81 0.47 1.27 0.42h1.32c0.2-0.04 0.41 0.04 0.52 0.22 0.11 0.17 0.11 0.4 0 0.57s-0.32 0.26-0.52 0.22h-2.92v1.2h2.92c0.5 0.04 1-0.14 1.36-0.49s0.55-0.84 0.53-1.35c0.03-0.46-0.16-0.91-0.5-1.23-0.34-0.31-0.8-0.46-1.26-0.39v0.04zm3.9-1h2.43l0.54-1.22h-2.93c-0.5-0.06-1 0.1-1.37 0.44s-0.58 0.82-0.57 1.32c-0.03 0.47 0.15 0.92 0.49 1.24s0.81 0.47 1.27 0.42h1.29c0.2-0.04 0.41 0.04 0.52 0.22 0.11 0.17 0.11 0.4 0 0.57s-0.32 0.26-0.52 0.22h-2.89v1.2h2.87c0.81 0.08 1.56-0.4 1.84-1.16v-1.34c-0.29-0.63-0.95-1.01-1.64-0.94h-1.36c-0.2 0.04-0.41-0.04-0.52-0.22-0.11-0.17-0.11-0.4 0-0.57s0.32-0.26 0.52-0.22l0.03 0.04z"/>
		<path class="st6" d="m-316.77-183.5h-1.78l-2.45 5.64h1.48l0.52-1.14h2.63l0.48 1.18h1.54l-2.42-5.68zm-1.85 3.36 0.55-1.32 0.36-0.88 0.9 2.2h-1.81zm9.32-3.36-1.1 3.26-0.18 0.62-0.18-0.62-1.12-3.26h-2.21v5.64h1.33v-4.56l0.28 0.86 1.28 3.7h1.2l1.31-3.7 0.26-0.86v4.56h1.32v-5.64h-2.19zm7.8 1.2v-1.2h-4.5v5.64h4.5v-1.2h-3.17v-1h3.09v-1.22h-3.09v-1l3.17-0.02zm4.41 2.36c0.9-0.11 1.56-0.88 1.54-1.78 0.01-0.51-0.21-1.01-0.59-1.35s-0.9-0.5-1.41-0.43h-3.05v5.64h1.39v-2h0.62l1.68 2h1.7l-1.88-2.08zm-0.54-1.12h-1.58v-1.24h1.58c0.18-0.02 0.35 0.04 0.49 0.15 0.13 0.12 0.21 0.29 0.21 0.47s-0.07 0.35-0.21 0.47c-0.13 0.12-0.31 0.18-0.49 0.15zm2.74-2.44v5.64h1.37v-5.64h-1.37zm5 1.22h1.47v-1.22h-1.58c-0.74-0.05-1.47 0.23-1.99 0.77s-0.78 1.27-0.71 2.01v0.08c-0.08 0.73 0.16 1.46 0.66 2s1.22 0.82 1.96 0.78h0.08l0.55-1.2h-0.45c-0.42 0.02-0.82-0.14-1.1-0.45s-0.41-0.72-0.36-1.13v-0.08c-0.05-0.41 0.09-0.82 0.37-1.12s0.68-0.46 1.09-0.44h0.01zm4.78-1.22h-1.8l-2.42 5.64h1.46l0.48-1.14h2.67l0.48 1.18h1.54l-2.41-5.68zm-1.84 3.36 0.52-1.32 0.36-0.88 0.34 0.88 0.54 1.32h-1.76zm8.56-3.36v3.68l-0.38-0.64-2-3h-1.67v5.64h1.34v-3.84l0.36 0.62 2.09 3.18h1.65v-5.64h-1.39z"/>
	
</g>
</svg>
